<?xml version="1.0" standalone="no"?>
 <!DOCTYPE svg PUBLIC "-//W3C//DTD SVG 1.1//EN" 
 "http://www.w3.org/Graphics/SVG/1.1/DTD/svg11.dtd"> 
<svg
  xmlns:svg="http://www.w3.org/2000/svg"
  xmlns="http://www.w3.org/2000/svg"
  xmlns:xlink="http://www.w3.org/1999/xlink"
  xmlns:inkscape="http://www.inkscape.org/namespaces/inkscape"
  version="1.1"
  width="96.5mm" height="41.7mm" viewBox="41.040 57.550 96.450 41.660">
<rect x="41.040" y="57.550" width="96.450" height="41.660" fill="#FFFFFF"/>
<title>SVG Image created as simple-led.svg date 2026-09-22T23:32:16 </title>
  <desc>Image generated by Eeschema-SVG </desc>
<g style="fill:#000000; fill-opacity:1.0000;stroke:#000000; stroke-opacity:1.0000;
stroke-linecap:round; stroke-linejoin:round;"
 transform="translate(0 0) scale(1 1)">
<path style="fill:none; 
stroke:#840000; stroke-width:0.1524; stroke-opacity:1; 
stroke-linecap:round; stroke-linejoin:round;fill:none"
d="M 113.7920,76.9620
112.2680,78.4860
113.0300,78.4860
112.2680,78.4860
112.2680,77.7240
" /> 
<path style="fill:none; 
stroke:#840000; stroke-width:0.1524; stroke-opacity:1; 
stroke-linecap:round; stroke-linejoin:round;fill:none"
d="M 115.0620,76.9620
113.5380,78.4860
114.3000,78.4860
113.5380,78.4860
113.5380,77.7240
" /> 
<path style="fill:none; 
stroke:#840000; stroke-width:0.1524; stroke-opacity:1; 
stroke-linecap:round; stroke-linejoin:round;fill:none"
d="M 115.5700,76.2000
118.1100,76.2000
" /> 
<path style="fill:none; 
stroke:#840000; stroke-width:0.2540; stroke-opacity:1; 
stroke-linecap:round; stroke-linejoin:round;fill:none"
d="M 115.5700,77.4700
115.5700,74.9300
" /> 
<path style="fill:none; 
stroke:#840000; stroke-width:0.2540; stroke-opacity:1; 
stroke-linecap:round; stroke-linejoin:round;fill:none"
d="M 118.1100,77.4700
118.1100,74.9300
115.5700,76.2000
Z" /> 
</g>
<g style="fill:none; 
stroke:#840000; stroke-width:0.1524; stroke-opacity:1; 
stroke-linecap:round; stroke-linejoin:round;">
<path d="M115.5700 76.2000
L113.0300 76.2000
" />
<path d="M118.1100 76.2000
L120.6500 76.2000
" />
</g>
<g style="fill:none; 
stroke:#006464; stroke-width:0.1524; stroke-opacity:1; 
stroke-linecap:round; stroke-linejoin:round;">
<text x="116.8400" y="74.2950"
textLength="2.6827" font-size="1.6933" lengthAdjust="spacingAndGlyphs"
text-anchor="middle" opacity="0" stroke-opacity="0">D1</text>
<g class="stroked-text"><desc>D1</desc>
<path d="M115.9026 74.2395
L115.9026 72.9695
" />
<path d="M115.9026 72.9695
L116.2050 72.9695
" />
<path d="M116.2050 72.9695
L116.3864 73.0300
" />
<path d="M116.3864 73.0300
L116.5074 73.1510
" />
<path d="M116.5074 73.1510
L116.5679 73.2719
" />
<path d="M116.5679 73.2719
L116.6283 73.5138
" />
<path d="M116.6283 73.5138
L116.6283 73.6952
" />
<path d="M116.6283 73.6952
L116.5679 73.9371
" />
<path d="M116.5679 73.9371
L116.5074 74.0581
" />
<path d="M116.5074 74.0581
L116.3864 74.1791
" />
<path d="M116.3864 74.1791
L116.2050 74.2395
" />
<path d="M116.2050 74.2395
L115.9026 74.2395
" />
<path d="M117.8379 74.2395
L117.1122 74.2395
" />
<path d="M117.4750 74.2395
L117.4750 72.9695
" />
<path d="M117.4750 72.9695
L117.3541 73.1510
" />
<path d="M117.3541 73.1510
L117.2331 73.2719
" />
<path d="M117.2331 73.2719
L117.1122 73.3324
" />
</g><text x="116.8400" y="80.6450"
textLength="3.6503" font-size="1.6933" lengthAdjust="spacingAndGlyphs"
text-anchor="middle" opacity="0" stroke-opacity="0">LED</text>
<g class="stroked-text"><desc>LED</desc>
<path d="M116.0236 80.5895
L115.4188 80.5895
" />
<path d="M115.4188 80.5895
L115.4188 79.3195
" />
<path d="M116.4469 79.9243
L116.8703 79.9243
" />
<path d="M117.0517 80.5895
L116.4469 80.5895
" />
<path d="M116.4469 80.5895
L116.4469 79.3195
" />
<path d="M116.4469 79.3195
L117.0517 79.3195
" />
<path d="M117.5959 80.5895
L117.5959 79.3195
" />
<path d="M117.5959 79.3195
L117.8983 79.3195
" />
<path d="M117.8983 79.3195
L118.0797 79.3800
" />
<path d="M118.0797 79.3800
L118.2007 79.5010
" />
<path d="M118.2007 79.5010
L118.2612 79.6219
" />
<path d="M118.2612 79.6219
L118.3216 79.8638
" />
<path d="M118.3216 79.8638
L118.3216 80.0452
" />
<path d="M118.3216 80.0452
L118.2612 80.2871
" />
<path d="M118.2612 80.2871
L118.2007 80.4081
" />
<path d="M118.2007 80.4081
L118.0797 80.5291
" />
<path d="M118.0797 80.5291
L117.8983 80.5895
" />
<path d="M117.8983 80.5895
L117.5959 80.5895
" />
</g><path style="fill:none; 
stroke:#840000; stroke-width:0.1524; stroke-opacity:1; 
stroke-linecap:round; stroke-linejoin:round;fill:none"
d="M 110.4900,78.7400
110.4900,80.0100
111.7600,80.0100
110.4900,81.2800
109.2200,80.0100
110.4900,80.0100
" /> 
</g>
<g style="fill:none; 
stroke:#840000; stroke-width:0.1524; stroke-opacity:1; 
stroke-linecap:round; stroke-linejoin:round;">
<path d="M110.4900 78.7400
L110.4900 78.7400
" />
</g>
<g style="fill:none; 
stroke:#006464; stroke-width:0.1524; stroke-opacity:1; 
stroke-linecap:round; stroke-linejoin:round;">
<text x="110.4900" y="83.1850"
textLength="4.0737" font-size="1.6933" lengthAdjust="spacingAndGlyphs"
text-anchor="middle" opacity="0" stroke-opacity="0">GND</text>
<g class="stroked-text"><desc>GND</desc>
<path d="M109.5224 81.9200
L109.4014 81.8595
" />
<path d="M109.4014 81.8595
L109.2200 81.8595
" />
<path d="M109.2200 81.8595
L109.0386 81.9200
" />
<path d="M109.0386 81.9200
L108.9176 82.0410
" />
<path d="M108.9176 82.0410
L108.8571 82.1619
" />
<path d="M108.8571 82.1619
L108.7967 82.4038
" />
<path d="M108.7967 82.4038
L108.7967 82.5852
" />
<path d="M108.7967 82.5852
L108.8571 82.8271
" />
<path d="M108.8571 82.8271
L108.9176 82.9481
" />
<path d="M108.9176 82.9481
L109.0386 83.0691
" />
<path d="M109.0386 83.0691
L109.2200 83.1295
" />
<path d="M109.2200 83.1295
L109.3409 83.1295
" />
<path d="M109.3409 83.1295
L109.5224 83.0691
" />
<path d="M109.5224 83.0691
L109.5828 83.0086
" />
<path d="M109.5828 83.0086
L109.5828 82.5852
" />
<path d="M109.5828 82.5852
L109.3409 82.5852
" />
<path d="M110.1271 83.1295
L110.1271 81.8595
" />
<path d="M110.1271 81.8595
L110.8528 83.1295
" />
<path d="M110.8528 83.1295
L110.8528 81.8595
" />
<path d="M111.4576 83.1295
L111.4576 81.8595
" />
<path d="M111.4576 81.8595
L111.7600 81.8595
" />
<path d="M111.7600 81.8595
L111.9414 81.9200
" />
<path d="M111.9414 81.9200
L112.0624 82.0410
" />
<path d="M112.0624 82.0410
L112.1229 82.1619
" />
<path d="M112.1229 82.1619
L112.1833 82.4038
" />
<path d="M112.1833 82.4038
L112.1833 82.5852
" />
<path d="M112.1833 82.5852
L112.1229 82.8271
" />
<path d="M112.1229 82.8271
L112.0624 82.9481
" />
<path d="M112.0624 82.9481
L111.9414 83.0691
" />
<path d="M111.9414 83.0691
L111.7600 83.1295
" />
<path d="M111.7600 83.1295
L111.4576 83.1295
" />
</g><path style="fill:none; 
stroke:#840000; stroke-width:0.1524; stroke-opacity:1; 
stroke-linecap:round; stroke-linejoin:round;fill:none"
d="M 53.3400,88.9000
53.3400,90.1700
54.6100,90.1700
53.3400,91.4400
52.0700,90.1700
53.3400,90.1700
" /> 
</g>
<g style="fill:none; 
stroke:#840000; stroke-width:0.1524; stroke-opacity:1; 
stroke-linecap:round; stroke-linejoin:round;">
<path d="M53.3400 88.9000
L53.3400 88.9000
" />
</g>
<g style="fill:none; 
stroke:#006464; stroke-width:0.1524; stroke-opacity:1; 
stroke-linecap:round; stroke-linejoin:round;">
<text x="53.3400" y="93.3450"
textLength="4.0737" font-size="1.6933" lengthAdjust="spacingAndGlyphs"
text-anchor="middle" opacity="0" stroke-opacity="0">GND</text>
<g class="stroked-text"><desc>GND</desc>
<path d="M52.3724 92.0800
L52.2514 92.0195
" />
<path d="M52.2514 92.0195
L52.0700 92.0195
" />
<path d="M52.0700 92.0195
L51.8886 92.0800
" />
<path d="M51.8886 92.0800
L51.7676 92.2010
" />
<path d="M51.7676 92.2010
L51.7071 92.3219
" />
<path d="M51.7071 92.3219
L51.6467 92.5638
" />
<path d="M51.6467 92.5638
L51.6467 92.7452
" />
<path d="M51.6467 92.7452
L51.7071 92.9871
" />
<path d="M51.7071 92.9871
L51.7676 93.1081
" />
<path d="M51.7676 93.1081
L51.8886 93.2291
" />
<path d="M51.8886 93.2291
L52.0700 93.2895
" />
<path d="M52.0700 93.2895
L52.1909 93.2895
" />
<path d="M52.1909 93.2895
L52.3724 93.2291
" />
<path d="M52.3724 93.2291
L52.4328 93.1686
" />
<path d="M52.4328 93.1686
L52.4328 92.7452
" />
<path d="M52.4328 92.7452
L52.1909 92.7452
" />
<path d="M52.9771 93.2895
L52.9771 92.0195
" />
<path d="M52.9771 92.0195
L53.7028 93.2895
" />
<path d="M53.7028 93.2895
L53.7028 92.0195
" />
<path d="M54.3076 93.2895
L54.3076 92.0195
" />
<path d="M54.3076 92.0195
L54.6100 92.0195
" />
<path d="M54.6100 92.0195
L54.7914 92.0800
" />
<path d="M54.7914 92.0800
L54.9124 92.2010
" />
<path d="M54.9124 92.2010
L54.9729 92.3219
" />
<path d="M54.9729 92.3219
L55.0333 92.5638
" />
<path d="M55.0333 92.5638
L55.0333 92.7452
" />
<path d="M55.0333 92.7452
L54.9729 92.9871
" />
<path d="M54.9729 92.9871
L54.9124 93.1081
" />
<path d="M54.9124 93.1081
L54.7914 93.2291
" />
<path d="M54.7914 93.2291
L54.6100 93.2895
" />
<path d="M54.6100 93.2895
L54.3076 93.2895
" />
</g><path style="fill:none; 
stroke:#840000; stroke-width:0.1524; stroke-opacity:1; 
stroke-linecap:round; stroke-linejoin:round;fill:none"
d="M 50.8000,83.8200
50.8000,82.5500
49.7840,81.9150
50.8000,81.2800
51.8160,81.9150
50.8000,82.5500
" /> 
</g>
<g style="fill:none; 
stroke:#840000; stroke-width:0.1524; stroke-opacity:1; 
stroke-linecap:round; stroke-linejoin:round;">
<path d="M50.8000 83.8200
L50.8000 83.8200
" />
</g>
<g style="fill:none; 
stroke:#006464; stroke-width:0.1524; stroke-opacity:1; 
stroke-linecap:round; stroke-linejoin:round;">
<text x="43.4316" y="81.9150"
textLength="9.6375" font-size="1.6933" lengthAdjust="spacingAndGlyphs"
text-anchor="middle" opacity="0" stroke-opacity="0">PWR_FLAG</text>
<g class="stroked-text"><desc>PWR_FLAG</desc>
<path d="M39.0168 81.8595
L39.0168 80.5895
" />
<path d="M39.0168 80.5895
L39.5006 80.5895
" />
<path d="M39.5006 80.5895
L39.6216 80.6500
" />
<path d="M39.6216 80.6500
L39.6821 80.7105
" />
<path d="M39.6821 80.7105
L39.7425 80.8314
" />
<path d="M39.7425 80.8314
L39.7425 81.0129
" />
<path d="M39.7425 81.0129
L39.6821 81.1338
" />
<path d="M39.6821 81.1338
L39.6216 81.1943
" />
<path d="M39.6216 81.1943
L39.5006 81.2548
" />
<path d="M39.5006 81.2548
L39.0168 81.2548
" />
<path d="M40.1659 80.5895
L40.4683 81.8595
" />
<path d="M40.4683 81.8595
L40.7102 80.9524
" />
<path d="M40.7102 80.9524
L40.9521 81.8595
" />
<path d="M40.9521 81.8595
L41.2545 80.5895
" />
<path d="M42.4639 81.8595
L42.0406 81.2548
" />
<path d="M41.7382 81.8595
L41.7382 80.5895
" />
<path d="M41.7382 80.5895
L42.2220 80.5895
" />
<path d="M42.2220 80.5895
L42.3430 80.6500
" />
<path d="M42.3430 80.6500
L42.4035 80.7105
" />
<path d="M42.4035 80.7105
L42.4639 80.8314
" />
<path d="M42.4639 80.8314
L42.4639 81.0129
" />
<path d="M42.4639 81.0129
L42.4035 81.1338
" />
<path d="M42.4035 81.1338
L42.3430 81.1943
" />
<path d="M42.3430 81.1943
L42.2220 81.2548
" />
<path d="M42.2220 81.2548
L41.7382 81.2548
" />
<path d="M42.7059 81.9805
L43.6735 81.9805
" />
<path d="M44.3992 81.1943
L43.9758 81.1943
" />
<path d="M43.9758 81.8595
L43.9758 80.5895
" />
<path d="M43.9758 80.5895
L44.5806 80.5895
" />
<path d="M45.6692 81.8595
L45.0644 81.8595
" />
<path d="M45.0644 81.8595
L45.0644 80.5895
" />
<path d="M46.0321 81.4967
L46.6368 81.4967
" />
<path d="M45.9111 81.8595
L46.3344 80.5895
" />
<path d="M46.3344 80.5895
L46.7578 81.8595
" />
<path d="M47.8464 80.6500
L47.7254 80.5895
" />
<path d="M47.7254 80.5895
L47.5440 80.5895
" />
<path d="M47.5440 80.5895
L47.3626 80.6500
" />
<path d="M47.3626 80.6500
L47.2416 80.7710
" />
<path d="M47.2416 80.7710
L47.1811 80.8919
" />
<path d="M47.1811 80.8919
L47.1207 81.1338
" />
<path d="M47.1207 81.1338
L47.1207 81.3152
" />
<path d="M47.1207 81.3152
L47.1811 81.5571
" />
<path d="M47.1811 81.5571
L47.2416 81.6781
" />
<path d="M47.2416 81.6781
L47.3626 81.7991
" />
<path d="M47.3626 81.7991
L47.5440 81.8595
" />
<path d="M47.5440 81.8595
L47.6649 81.8595
" />
<path d="M47.6649 81.8595
L47.8464 81.7991
" />
<path d="M47.8464 81.7991
L47.9068 81.7386
" />
<path d="M47.9068 81.7386
L47.9068 81.3152
" />
<path d="M47.9068 81.3152
L47.6649 81.3152
" />
</g></g>
<g style="fill:none; 
stroke:#840000; stroke-width:0.2540; stroke-opacity:1; 
stroke-linecap:round; stroke-linejoin:round;">
<rect x="90.424000" y="73.660000" width="2.032000" height="5.080000" rx="0.000000" />
</g>
<g style="fill:none; 
stroke:#840000; stroke-width:0.1524; stroke-opacity:1; 
stroke-linecap:round; stroke-linejoin:round;">
<path d="M91.4400 73.6600
L91.4400 72.3900
" />
<path d="M91.4400 78.7400
L91.4400 80.0100
" />
</g>
<g style="fill:none; 
stroke:#006464; stroke-width:0.1524; stroke-opacity:1; 
stroke-linecap:round; stroke-linejoin:round;">
<text x="95.3309" y="75.5650"
textLength="2.6827" font-size="1.6933" lengthAdjust="spacingAndGlyphs"
text-anchor="middle" opacity="0" stroke-opacity="0">R1</text>
<g class="stroked-text"><desc>R1</desc>
<path d="M95.1192 75.5095
L94.6959 74.9048
" />
<path d="M94.3935 75.5095
L94.3935 74.2395
" />
<path d="M94.3935 74.2395
L94.8773 74.2395
" />
<path d="M94.8773 74.2395
L94.9983 74.3000
" />
<path d="M94.9983 74.3000
L95.0588 74.3605
" />
<path d="M95.0588 74.3605
L95.1192 74.4814
" />
<path d="M95.1192 74.4814
L95.1192 74.6629
" />
<path d="M95.1192 74.6629
L95.0588 74.7838
" />
<path d="M95.0588 74.7838
L94.9983 74.8443
" />
<path d="M94.9983 74.8443
L94.8773 74.9048
" />
<path d="M94.8773 74.9048
L94.3935 74.9048
" />
<path d="M96.3288 75.5095
L95.6031 75.5095
" />
<path d="M95.9659 75.5095
L95.9659 74.2395
" />
<path d="M95.9659 74.2395
L95.8450 74.4210
" />
<path d="M95.8450 74.4210
L95.7240 74.5419
" />
<path d="M95.7240 74.5419
L95.6031 74.6024
" />
</g><text x="95.9054" y="78.1050"
textLength="3.8317" font-size="1.6933" lengthAdjust="spacingAndGlyphs"
text-anchor="middle" opacity="0" stroke-opacity="0">680</text>
<g class="stroked-text"><desc>680</desc>
<path d="M94.9378 76.7795
L94.6959 76.7795
" />
<path d="M94.6959 76.7795
L94.5750 76.8400
" />
<path d="M94.5750 76.8400
L94.5145 76.9005
" />
<path d="M94.5145 76.9005
L94.3935 77.0819
" />
<path d="M94.3935 77.0819
L94.3331 77.3238
" />
<path d="M94.3331 77.3238
L94.3331 77.8076
" />
<path d="M94.3331 77.8076
L94.3935 77.9286
" />
<path d="M94.3935 77.9286
L94.4540 77.9891
" />
<path d="M94.4540 77.9891
L94.5750 78.0495
" />
<path d="M94.5750 78.0495
L94.8169 78.0495
" />
<path d="M94.8169 78.0495
L94.9378 77.9891
" />
<path d="M94.9378 77.9891
L94.9983 77.9286
" />
<path d="M94.9983 77.9286
L95.0588 77.8076
" />
<path d="M95.0588 77.8076
L95.0588 77.5052
" />
<path d="M95.0588 77.5052
L94.9983 77.3843
" />
<path d="M94.9983 77.3843
L94.9378 77.3238
" />
<path d="M94.9378 77.3238
L94.8169 77.2633
" />
<path d="M94.8169 77.2633
L94.5750 77.2633
" />
<path d="M94.5750 77.2633
L94.4540 77.3238
" />
<path d="M94.4540 77.3238
L94.3935 77.3843
" />
<path d="M94.3935 77.3843
L94.3331 77.5052
" />
<path d="M95.7845 77.3238
L95.6635 77.2633
" />
<path d="M95.6635 77.2633
L95.6030 77.2029
" />
<path d="M95.6030 77.2029
L95.5426 77.0819
" />
<path d="M95.5426 77.0819
L95.5426 77.0214
" />
<path d="M95.5426 77.0214
L95.6030 76.9005
" />
<path d="M95.6030 76.9005
L95.6635 76.8400
" />
<path d="M95.6635 76.8400
L95.7845 76.7795
" />
<path d="M95.7845 76.7795
L96.0264 76.7795
" />
<path d="M96.0264 76.7795
L96.1473 76.8400
" />
<path d="M96.1473 76.8400
L96.2078 76.9005
" />
<path d="M96.2078 76.9005
L96.2683 77.0214
" />
<path d="M96.2683 77.0214
L96.2683 77.0819
" />
<path d="M96.2683 77.0819
L96.2078 77.2029
" />
<path d="M96.2078 77.2029
L96.1473 77.2633
" />
<path d="M96.1473 77.2633
L96.0264 77.3238
" />
<path d="M96.0264 77.3238
L95.7845 77.3238
" />
<path d="M95.7845 77.3238
L95.6635 77.3843
" />
<path d="M95.6635 77.3843
L95.6030 77.4448
" />
<path d="M95.6030 77.4448
L95.5426 77.5657
" />
<path d="M95.5426 77.5657
L95.5426 77.8076
" />
<path d="M95.5426 77.8076
L95.6030 77.9286
" />
<path d="M95.6030 77.9286
L95.6635 77.9891
" />
<path d="M95.6635 77.9891
L95.7845 78.0495
" />
<path d="M95.7845 78.0495
L96.0264 78.0495
" />
<path d="M96.0264 78.0495
L96.1473 77.9891
" />
<path d="M96.1473 77.9891
L96.2078 77.9286
" />
<path d="M96.2078 77.9286
L96.2683 77.8076
" />
<path d="M96.2683 77.8076
L96.2683 77.5657
" />
<path d="M96.2683 77.5657
L96.2078 77.4448
" />
<path d="M96.2078 77.4448
L96.1473 77.3843
" />
<path d="M96.1473 77.3843
L96.0264 77.3238
" />
<path d="M97.0544 76.7795
L97.1754 76.7795
" />
<path d="M97.1754 76.7795
L97.2963 76.8400
" />
<path d="M97.2963 76.8400
L97.3568 76.9005
" />
<path d="M97.3568 76.9005
L97.4173 77.0214
" />
<path d="M97.4173 77.0214
L97.4778 77.2633
" />
<path d="M97.4778 77.2633
L97.4778 77.5657
" />
<path d="M97.4778 77.5657
L97.4173 77.8076
" />
<path d="M97.4173 77.8076
L97.3568 77.9286
" />
<path d="M97.3568 77.9286
L97.2963 77.9891
" />
<path d="M97.2963 77.9891
L97.1754 78.0495
" />
<path d="M97.1754 78.0495
L97.0544 78.0495
" />
<path d="M97.0544 78.0495
L96.9335 77.9891
" />
<path d="M96.9335 77.9891
L96.8730 77.9286
" />
<path d="M96.8730 77.9286
L96.8125 77.8076
" />
<path d="M96.8125 77.8076
L96.7521 77.5657
" />
<path d="M96.7521 77.5657
L96.7521 77.2633
" />
<path d="M96.7521 77.2633
L96.8125 77.0214
" />
<path d="M96.8125 77.0214
L96.8730 76.9005
" />
<path d="M96.8730 76.9005
L96.9335 76.8400
" />
<path d="M96.9335 76.8400
L97.0544 76.7795
" />
</g></g>
<g style="fill:#FFFFC2; fill-opacity:1.0000; stroke:none;">
<rect x="59.690000" y="74.930000" width="2.540000" height="5.080000" rx="0.000000" />
</g>
<g style="fill:none; 
stroke:#840000; stroke-width:0.2540; stroke-opacity:1; 
stroke-linecap:round; stroke-linejoin:round;">
<rect x="59.690000" y="74.930000" width="2.540000" height="5.080000" rx="0.000000" />
</g>
<g style="fill:none; 
stroke:#840000; stroke-width:0.1524; stroke-opacity:1; 
stroke-linecap:round; stroke-linejoin:round;">
<rect x="59.690000" y="76.073000" width="1.270000" height="0.254000" rx="0.000000" />
<rect x="59.690000" y="78.613000" width="1.270000" height="0.254000" rx="0.000000" />
<path d="M59.6900 76.2000
L55.8800 76.2000
" />
</g>
<g style="fill:none; 
stroke:#A90000; stroke-width:0.1524; stroke-opacity:1; 
stroke-linecap:round; stroke-linejoin:round;">
<text x="57.7850" y="75.8444"
textLength="1.4127" font-size="1.6933" lengthAdjust="spacingAndGlyphs"
text-anchor="middle" opacity="0" stroke-opacity="0">1</text>
<g class="stroked-text"><desc>1</desc>
<path d="M58.1479 75.6809
L57.4222 75.6809
" />
<path d="M57.7850 75.6809
L57.7850 74.4109
" />
<path d="M57.7850 74.4109
L57.6641 74.5924
" />
<path d="M57.6641 74.5924
L57.5431 74.7133
" />
<path d="M57.5431 74.7133
L57.4222 74.7738
" />
</g></g>
<g style="fill:none; 
stroke:#840000; stroke-width:0.1524; stroke-opacity:1; 
stroke-linecap:round; stroke-linejoin:round;">
<path d="M59.6900 78.7400
L55.8800 78.7400
" />
</g>
<g style="fill:none; 
stroke:#A90000; stroke-width:0.1524; stroke-opacity:1; 
stroke-linecap:round; stroke-linejoin:round;">
<text x="57.7850" y="78.3844"
textLength="1.4127" font-size="1.6933" lengthAdjust="spacingAndGlyphs"
text-anchor="middle" opacity="0" stroke-opacity="0">2</text>
<g class="stroked-text"><desc>2</desc>
<path d="M57.4222 77.0719
L57.4826 77.0114
" />
<path d="M57.4826 77.0114
L57.6036 76.9509
" />
<path d="M57.6036 76.9509
L57.9060 76.9509
" />
<path d="M57.9060 76.9509
L58.0269 77.0114
" />
<path d="M58.0269 77.0114
L58.0874 77.0719
" />
<path d="M58.0874 77.0719
L58.1479 77.1928
" />
<path d="M58.1479 77.1928
L58.1479 77.3138
" />
<path d="M58.1479 77.3138
L58.0874 77.4952
" />
<path d="M58.0874 77.4952
L57.3617 78.2209
" />
<path d="M57.3617 78.2209
L58.1479 78.2209
" />
</g></g>
<g style="fill:none; 
stroke:#006464; stroke-width:0.1524; stroke-opacity:1; 
stroke-linecap:round; stroke-linejoin:round;">
<text x="59.6900" y="74.2950"
textLength="2.3803" font-size="1.6933" lengthAdjust="spacingAndGlyphs"
text-anchor="middle" opacity="0" stroke-opacity="0">J1</text>
<g class="stroked-text"><desc>J1</desc>
<path d="M59.2667 72.9695
L59.2667 73.8767
" />
<path d="M59.2667 73.8767
L59.2062 74.0581
" />
<path d="M59.2062 74.0581
L59.0853 74.1791
" />
<path d="M59.0853 74.1791
L58.9038 74.2395
" />
<path d="M58.9038 74.2395
L58.7829 74.2395
" />
<path d="M60.5367 74.2395
L59.8110 74.2395
" />
<path d="M60.1738 74.2395
L60.1738 72.9695
" />
<path d="M60.1738 72.9695
L60.0529 73.1510
" />
<path d="M60.0529 73.1510
L59.9319 73.2719
" />
<path d="M59.9319 73.2719
L59.8110 73.3324
" />
</g><text x="59.6900" y="81.9150"
textLength="8.4281" font-size="1.6933" lengthAdjust="spacingAndGlyphs"
text-anchor="middle" opacity="0" stroke-opacity="0">VIN/GND</text>
<g class="stroked-text"><desc>VIN/GND</desc>
<path d="M55.6985 80.5895
L56.1218 81.8595
" />
<path d="M56.1218 81.8595
L56.5452 80.5895
" />
<path d="M56.9685 81.8595
L56.9685 80.5895
" />
<path d="M57.5733 81.8595
L57.5733 80.5895
" />
<path d="M57.5733 80.5895
L58.2990 81.8595
" />
<path d="M58.2990 81.8595
L58.2990 80.5895
" />
<path d="M59.8110 80.5291
L58.7224 82.1619
" />
<path d="M60.8996 80.6500
L60.7786 80.5895
" />
<path d="M60.7786 80.5895
L60.5972 80.5895
" />
<path d="M60.5972 80.5895
L60.4158 80.6500
" />
<path d="M60.4158 80.6500
L60.2948 80.7710
" />
<path d="M60.2948 80.7710
L60.2343 80.8919
" />
<path d="M60.2343 80.8919
L60.1739 81.1338
" />
<path d="M60.1739 81.1338
L60.1739 81.3152
" />
<path d="M60.1739 81.3152
L60.2343 81.5571
" />
<path d="M60.2343 81.5571
L60.2948 81.6781
" />
<path d="M60.2948 81.6781
L60.4158 81.7991
" />
<path d="M60.4158 81.7991
L60.5972 81.8595
" />
<path d="M60.5972 81.8595
L60.7181 81.8595
" />
<path d="M60.7181 81.8595
L60.8996 81.7991
" />
<path d="M60.8996 81.7991
L60.9600 81.7386
" />
<path d="M60.9600 81.7386
L60.9600 81.3152
" />
<path d="M60.9600 81.3152
L60.7181 81.3152
" />
<path d="M61.5043 81.8595
L61.5043 80.5895
" />
<path d="M61.5043 80.5895
L62.2300 81.8595
" />
<path d="M62.2300 81.8595
L62.2300 80.5895
" />
<path d="M62.8348 81.8595
L62.8348 80.5895
" />
<path d="M62.8348 80.5895
L63.1372 80.5895
" />
<path d="M63.1372 80.5895
L63.3186 80.6500
" />
<path d="M63.3186 80.6500
L63.4396 80.7710
" />
<path d="M63.4396 80.7710
L63.5001 80.8919
" />
<path d="M63.5001 80.8919
L63.5605 81.1338
" />
<path d="M63.5605 81.1338
L63.5605 81.3152
" />
<path d="M63.5605 81.3152
L63.5001 81.5571
" />
<path d="M63.5001 81.5571
L63.4396 81.6781
" />
<path d="M63.4396 81.6781
L63.3186 81.7991
" />
<path d="M63.3186 81.7991
L63.1372 81.8595
" />
<path d="M63.1372 81.8595
L62.8348 81.8595
" />
</g></g>
<g style="fill:none; 
stroke:#840000; stroke-width:0.1524; stroke-opacity:1; 
stroke-linecap:round; stroke-linejoin:round;">
<text x="123.6663" y="76.9258"
textLength="5.7065" font-size="1.6933" lengthAdjust="spacingAndGlyphs"
text-anchor="start" opacity="0" stroke-opacity="0">LED_A</text>
<g class="stroked-text"><desc>LED_A</desc>
<path d="M124.6736 76.8703
L124.0688 76.8703
" />
<path d="M124.0688 76.8703
L124.0688 75.6003
" />
<path d="M125.0969 76.2051
L125.5203 76.2051
" />
<path d="M125.7017 76.8703
L125.0969 76.8703
" />
<path d="M125.0969 76.8703
L125.0969 75.6003
" />
<path d="M125.0969 75.6003
L125.7017 75.6003
" />
<path d="M126.2459 76.8703
L126.2459 75.6003
" />
<path d="M126.2459 75.6003
L126.5483 75.6003
" />
<path d="M126.5483 75.6003
L126.7297 75.6608
" />
<path d="M126.7297 75.6608
L126.8507 75.7818
" />
<path d="M126.8507 75.7818
L126.9112 75.9027
" />
<path d="M126.9112 75.9027
L126.9716 76.1446
" />
<path d="M126.9716 76.1446
L126.9716 76.3260
" />
<path d="M126.9716 76.3260
L126.9112 76.5679
" />
<path d="M126.9112 76.5679
L126.8507 76.6889
" />
<path d="M126.8507 76.6889
L126.7297 76.8099
" />
<path d="M126.7297 76.8099
L126.5483 76.8703
" />
<path d="M126.5483 76.8703
L126.2459 76.8703
" />
<path d="M127.2136 76.9913
L128.1812 76.9913
" />
<path d="M128.4231 76.5075
L129.0278 76.5075
" />
<path d="M128.3021 76.8703
L128.7254 75.6003
" />
<path d="M128.7254 75.6003
L129.1488 76.8703
" />
</g><path style="fill:none; 
stroke:#840000; stroke-width:0.1524; stroke-opacity:1; 
stroke-linecap:round; stroke-linejoin:round;fill:none"
d="M 123.1900,76.2000
123.1900,77.4704
130.0274,77.4704
130.0274,76.2000
130.0274,74.9296
123.1900,74.9296
Z" /> 
</g>
<g style="fill:none; 
stroke:#840000; stroke-width:0.1524; stroke-opacity:1; 
stroke-linecap:round; stroke-linejoin:round;">
<g transform="rotate(-90.000000 91.5308 69.3737)">
<text x="91.5308" y="70.0087"
textLength="3.2271" font-size="1.6933" lengthAdjust="spacingAndGlyphs"
text-anchor="start" opacity="0" stroke-opacity="0">VIN</text>
</g>
<g class="stroked-text"><desc>VIN</desc>
<path d="M90.8403 69.1525
L92.1103 68.7292
" />
<path d="M92.1103 68.7292
L90.8403 68.3058
" />
<path d="M92.1103 67.8825
L90.8403 67.8825
" />
<path d="M92.1103 67.2777
L90.8403 67.2777
" />
<path d="M90.8403 67.2777
L92.1103 66.5520
" />
<path d="M92.1103 66.5520
L90.8403 66.5520
" />
</g><path style="fill:none; 
stroke:#840000; stroke-width:0.1524; stroke-opacity:1; 
stroke-linecap:round; stroke-linejoin:round;fill:none"
d="M 91.4400,69.8500
92.7104,69.8500
92.7104,65.4920
91.4400,65.4920
90.1696,65.4920
90.1696,69.8500
Z" /> 
</g>
<g style="fill:none; 
stroke:#840000; stroke-width:0.1524; stroke-opacity:1; 
stroke-linecap:round; stroke-linejoin:round;">
<g transform="rotate(-90.000000 91.5308 83.0263)">
<text x="91.5308" y="83.6613"
textLength="5.7065" font-size="1.6933" lengthAdjust="spacingAndGlyphs"
text-anchor="end" opacity="0" stroke-opacity="0">LED_A</text>
</g>
<g class="stroked-text"><desc>LED_A</desc>
<path d="M92.1103 87.7226
L92.1103 88.3274
" />
<path d="M92.1103 88.3274
L90.8403 88.3274
" />
<path d="M91.4451 87.2993
L91.4451 86.8759
" />
<path d="M92.1103 86.6945
L92.1103 87.2993
" />
<path d="M92.1103 87.2993
L90.8403 87.2993
" />
<path d="M90.8403 87.2993
L90.8403 86.6945
" />
<path d="M92.1103 86.1503
L90.8403 86.1503
" />
<path d="M90.8403 86.1503
L90.8403 85.8479
" />
<path d="M90.8403 85.8479
L90.9008 85.6665
" />
<path d="M90.9008 85.6665
L91.0218 85.5455
" />
<path d="M91.0218 85.5455
L91.1427 85.4850
" />
<path d="M91.1427 85.4850
L91.3846 85.4246
" />
<path d="M91.3846 85.4246
L91.5660 85.4246
" />
<path d="M91.5660 85.4246
L91.8079 85.4850
" />
<path d="M91.8079 85.4850
L91.9289 85.5455
" />
<path d="M91.9289 85.5455
L92.0499 85.6665
" />
<path d="M92.0499 85.6665
L92.1103 85.8479
" />
<path d="M92.1103 85.8479
L92.1103 86.1503
" />
<path d="M92.2313 85.1827
L92.2313 84.2150
" />
<path d="M91.7475 83.9731
L91.7475 83.3684
" />
<path d="M92.1103 84.0941
L90.8403 83.6708
" />
<path d="M90.8403 83.6708
L92.1103 83.2474
" />
</g><path style="fill:none; 
stroke:#840000; stroke-width:0.1524; stroke-opacity:1; 
stroke-linecap:round; stroke-linejoin:round;fill:none"
d="M 91.4400,82.5500
90.1696,82.5500
90.1696,89.3874
91.4400,89.3874
92.7104,89.3874
92.7104,82.5500
Z" /> 
</g>
<g style="fill:none; 
stroke:#840000; stroke-width:0.1524; stroke-opacity:1; 
stroke-linecap:round; stroke-linejoin:round;">
<text x="52.8637" y="76.9258"
textLength="3.2271" font-size="1.6933" lengthAdjust="spacingAndGlyphs"
text-anchor="end" opacity="0" stroke-opacity="0">VIN</text>
<g class="stroked-text"><desc>VIN</desc>
<path d="M49.8605 75.6003
L50.2838 76.8703
" />
<path d="M50.2838 76.8703
L50.7072 75.6003
" />
<path d="M51.1305 76.8703
L51.1305 75.6003
" />
<path d="M51.7353 76.8703
L51.7353 75.6003
" />
<path d="M51.7353 75.6003
L52.4610 76.8703
" />
<path d="M52.4610 76.8703
L52.4610 75.6003
" />
</g><path style="fill:none; 
stroke:#840000; stroke-width:0.1524; stroke-opacity:1; 
stroke-linecap:round; stroke-linejoin:round;fill:none"
d="M 53.3400,76.2000
53.3400,74.9296
48.9820,74.9296
48.9820,76.2000
48.9820,77.4704
53.3400,77.4704
Z" /> 
</g>
<g style="fill:none; 
stroke:#009600; stroke-width:0.1524; stroke-opacity:1; 
stroke-linecap:round; stroke-linejoin:round;">
<path d="M110.4900 76.2000
L110.4900 78.7400
" />
<path d="M113.0300 76.2000
L110.4900 76.2000
" />
<path d="M120.6500 76.2000
L123.1900 76.2000
" />
<path d="M53.3400 78.7400
L53.3400 88.9000
" />
<path d="M53.3400 83.8200
L50.8000 83.8200
" />
<path d="M91.4400 80.0100
L91.4400 82.5500
" />
<path d="M91.4400 72.3900
L91.4400 69.8500
" />
<path d="M55.8800 76.2000
L53.3400 76.2000
" />
<path d="M55.8800 78.7400
L53.3400 78.7400
" />
</g>
<g style="fill:none; 
stroke:#006464; stroke-width:0.1524; stroke-opacity:1; 
stroke-linecap:round; stroke-linejoin:round;">
<text x="116.8400" y="74.2950"
textLength="2.6827" font-size="1.6933" lengthAdjust="spacingAndGlyphs"
text-anchor="middle" opacity="0" stroke-opacity="0">D1</text>
<g class="stroked-text"><desc>D1</desc>
<path d="M115.9026 74.2395
L115.9026 72.9695
" />
<path d="M115.9026 72.9695
L116.2050 72.9695
" />
<path d="M116.2050 72.9695
L116.3864 73.0300
" />
<path d="M116.3864 73.0300
L116.5074 73.1510
" />
<path d="M116.5074 73.1510
L116.5679 73.2719
" />
<path d="M116.5679 73.2719
L116.6283 73.5138
" />
<path d="M116.6283 73.5138
L116.6283 73.6952
" />
<path d="M116.6283 73.6952
L116.5679 73.9371
" />
<path d="M116.5679 73.9371
L116.5074 74.0581
" />
<path d="M116.5074 74.0581
L116.3864 74.1791
" />
<path d="M116.3864 74.1791
L116.2050 74.2395
" />
<path d="M116.2050 74.2395
L115.9026 74.2395
" />
<path d="M117.8379 74.2395
L117.1122 74.2395
" />
<path d="M117.4750 74.2395
L117.4750 72.9695
" />
<path d="M117.4750 72.9695
L117.3541 73.1510
" />
<path d="M117.3541 73.1510
L117.2331 73.2719
" />
<path d="M117.2331 73.2719
L117.1122 73.3324
" />
</g><text x="116.8400" y="80.6450"
textLength="3.6503" font-size="1.6933" lengthAdjust="spacingAndGlyphs"
text-anchor="middle" opacity="0" stroke-opacity="0">LED</text>
<g class="stroked-text"><desc>LED</desc>
<path d="M116.0236 80.5895
L115.4188 80.5895
" />
<path d="M115.4188 80.5895
L115.4188 79.3195
" />
<path d="M116.4469 79.9243
L116.8703 79.9243
" />
<path d="M117.0517 80.5895
L116.4469 80.5895
" />
<path d="M116.4469 80.5895
L116.4469 79.3195
" />
<path d="M116.4469 79.3195
L117.0517 79.3195
" />
<path d="M117.5959 80.5895
L117.5959 79.3195
" />
<path d="M117.5959 79.3195
L117.8983 79.3195
" />
<path d="M117.8983 79.3195
L118.0797 79.3800
" />
<path d="M118.0797 79.3800
L118.2007 79.5010
" />
<path d="M118.2007 79.5010
L118.2612 79.6219
" />
<path d="M118.2612 79.6219
L118.3216 79.8638
" />
<path d="M118.3216 79.8638
L118.3216 80.0452
" />
<path d="M118.3216 80.0452
L118.2612 80.2871
" />
<path d="M118.2612 80.2871
L118.2007 80.4081
" />
<path d="M118.2007 80.4081
L118.0797 80.5291
" />
<path d="M118.0797 80.5291
L117.8983 80.5895
" />
<path d="M117.8983 80.5895
L117.5959 80.5895
" />
</g></g>
<g style="fill:none; 
stroke:#840000; stroke-width:0.1524; stroke-opacity:1; 
stroke-linecap:round; stroke-linejoin:round;">
<path d="M115.5700 76.2000
L113.0300 76.2000
" />
<path d="M118.1100 76.2000
L120.6500 76.2000
" />
</g>
<g style="fill:none; 
stroke:#006464; stroke-width:0.1524; stroke-opacity:1; 
stroke-linecap:round; stroke-linejoin:round;">
<text x="110.4900" y="83.1850"
textLength="4.0737" font-size="1.6933" lengthAdjust="spacingAndGlyphs"
text-anchor="middle" opacity="0" stroke-opacity="0">GND</text>
<g class="stroked-text"><desc>GND</desc>
<path d="M109.5224 81.9200
L109.4014 81.8595
" />
<path d="M109.4014 81.8595
L109.2200 81.8595
" />
<path d="M109.2200 81.8595
L109.0386 81.9200
" />
<path d="M109.0386 81.9200
L108.9176 82.0410
" />
<path d="M108.9176 82.0410
L108.8571 82.1619
" />
<path d="M108.8571 82.1619
L108.7967 82.4038
" />
<path d="M108.7967 82.4038
L108.7967 82.5852
" />
<path d="M108.7967 82.5852
L108.8571 82.8271
" />
<path d="M108.8571 82.8271
L108.9176 82.9481
" />
<path d="M108.9176 82.9481
L109.0386 83.0691
" />
<path d="M109.0386 83.0691
L109.2200 83.1295
" />
<path d="M109.2200 83.1295
L109.3409 83.1295
" />
<path d="M109.3409 83.1295
L109.5224 83.0691
" />
<path d="M109.5224 83.0691
L109.5828 83.0086
" />
<path d="M109.5828 83.0086
L109.5828 82.5852
" />
<path d="M109.5828 82.5852
L109.3409 82.5852
" />
<path d="M110.1271 83.1295
L110.1271 81.8595
" />
<path d="M110.1271 81.8595
L110.8528 83.1295
" />
<path d="M110.8528 83.1295
L110.8528 81.8595
" />
<path d="M111.4576 83.1295
L111.4576 81.8595
" />
<path d="M111.4576 81.8595
L111.7600 81.8595
" />
<path d="M111.7600 81.8595
L111.9414 81.9200
" />
<path d="M111.9414 81.9200
L112.0624 82.0410
" />
<path d="M112.0624 82.0410
L112.1229 82.1619
" />
<path d="M112.1229 82.1619
L112.1833 82.4038
" />
<path d="M112.1833 82.4038
L112.1833 82.5852
" />
<path d="M112.1833 82.5852
L112.1229 82.8271
" />
<path d="M112.1229 82.8271
L112.0624 82.9481
" />
<path d="M112.0624 82.9481
L111.9414 83.0691
" />
<path d="M111.9414 83.0691
L111.7600 83.1295
" />
<path d="M111.7600 83.1295
L111.4576 83.1295
" />
</g></g>
<g style="fill:none; 
stroke:#840000; stroke-width:0.1524; stroke-opacity:1; 
stroke-linecap:round; stroke-linejoin:round;">
<path d="M110.4900 78.7400
L110.4900 78.7400
" />
</g>
<g style="fill:#009600; fill-opacity:1.0000; stroke:none;">
<circle cx="53.3400" cy="83.8200" r="0.4572" /> 
</g> 
</svg>
